<svg width="48" height="48" viewBox="0 0 48 48" fill="none" xmlns="http://www.w3.org/2000/svg">
<g clip-path="url(#clip0)">
<path d="M24 0.999878C10.74 0.999878 0 11.5599 0 24.5839C0 35.0059 6.876 43.8439 16.41 46.9599C17.61 47.1819 18.05 46.4519 18.05 45.8259C18.05 45.2659 18.03 43.7819 18.02 41.8159C11.344 43.2379 9.936 38.6519 9.936 38.6519C8.844 35.9299 7.266 35.2019 7.266 35.2019C5.092 33.7399 7.434 33.7699 7.434 33.7699C9.844 33.9339 11.11 36.1999 11.11 36.1999C13.25 39.8059 16.728 38.7639 18.1 38.1619C18.316 36.6359 18.934 35.5979 19.62 35.0079C14.29 34.4179 8.688 32.3899 8.688 23.3539C8.688 20.7799 9.618 18.6759 11.158 17.0259C10.888 16.4299 10.078 14.0319 11.368 10.7839C11.368 10.7839 13.378 10.1519 17.968 13.2019C19.888 12.6779 21.928 12.4179 23.968 12.4059C26.008 12.4179 28.048 12.6779 29.968 13.2019C34.528 10.1519 36.538 10.7839 36.538 10.7839C37.828 14.0319 37.018 16.4299 36.778 17.0259C38.308 18.6759 39.238 20.7799 39.238 23.3539C39.238 32.4139 33.628 34.4079 28.288 34.9879C29.128 35.6959 29.908 37.1419 29.908 39.3519C29.908 42.5079 29.878 45.0439 29.878 45.8099C29.878 46.4279 30.298 47.1659 31.528 46.9299C41.13 43.8339 48 34.9899 48 24.5839C48 11.5599 37.254 0.999878 24 0.999878V0.999878Z" fill="white"/>
</g>
<defs>
<clipPath id="clip0">
<rect width="48" height="48" fill="white"/>
</clipPath>
</defs>
</svg>
