<svg width="49" height="48" viewBox="0 0 49 48" fill="none" xmlns="http://www.w3.org/2000/svg">
<g clip-path="url(#clip0)">
<path d="M2.53868 45.9232H8.77875C9.63964 45.9232 10.3375 45.2253 10.3375 44.3644V17.0892C10.3375 16.2282 9.63964 15.5305 8.77875 15.5305H2.53868C1.6777 15.5305 0.97998 16.2282 0.97998 17.0892V44.3644C0.97998 45.2252 1.6777 45.9232 2.53868 45.9232Z" fill="white"/>
<path d="M2.53868 10.7354H8.77875C9.63964 10.7354 10.3375 10.0376 10.3375 9.1767V3.63548C10.3375 2.77459 9.63964 2.07678 8.77875 2.07678H2.53868C1.6777 2.07678 0.97998 2.77459 0.97998 3.63548V9.1767C0.97998 10.0376 1.6777 10.7354 2.53868 10.7354Z" fill="white"/>
<path d="M46.6322 18.6941C45.7553 17.5399 44.4623 16.5907 42.7527 15.8467C41.0431 15.1032 39.156 14.7312 37.0913 14.7312C32.8999 14.7312 29.3484 16.3308 26.4367 19.5306C25.8573 20.1673 25.4361 20.0281 25.4361 19.1671V17.0892C25.4361 16.2282 24.7382 15.5305 23.8773 15.5305H18.3032C17.4422 15.5305 16.7445 16.2282 16.7445 17.0892V44.3645C16.7445 45.2254 17.4423 45.9233 18.3032 45.9233H24.5433C25.4042 45.9233 26.102 45.2254 26.102 44.3645V34.8788C26.102 30.9271 26.3406 28.2185 26.8178 26.7533C27.2949 25.2881 28.1777 24.1116 29.4653 23.2235C30.753 22.3355 32.207 21.8912 33.8279 21.8912C35.0932 21.8912 36.1756 22.2021 37.0749 22.8239C37.9741 23.4457 38.6235 24.3166 39.0231 25.438C39.4229 26.5592 39.6227 29.029 39.6227 32.8477V44.3644C39.6227 45.2253 40.3204 45.9232 41.1813 45.9232H47.4213C48.2822 45.9232 48.98 45.2253 48.98 44.3644V28.9179C48.98 26.1874 48.8078 24.0893 48.4641 22.6241C48.1203 21.1589 47.5096 19.8489 46.6322 18.6941Z" fill="white"/>
</g>
<defs>
<clipPath id="clip0">
<rect width="48" height="48" fill="white" transform="translate(0.97998)"/>
</clipPath>
</defs>
</svg>
