<svg width="49" height="48" viewBox="0 0 49 48" fill="none" xmlns="http://www.w3.org/2000/svg">
<g clip-path="url(#clip0)">
<path d="M48.6715 9.117C46.8865 9.9 44.9845 10.419 43.0015 10.671C45.0415 9.453 46.5985 7.539 47.3305 5.232C45.4285 6.366 43.3285 7.167 41.0905 7.614C39.2845 5.691 36.7105 4.5 33.9025 4.5C28.4545 4.5 24.0685 8.922 24.0685 14.343C24.0685 15.123 24.1345 15.873 24.2965 16.587C16.1155 16.188 8.87648 12.267 4.01348 6.294C3.16448 7.767 2.66648 9.453 2.66648 11.268C2.66648 14.676 4.42148 17.697 7.03748 19.446C5.45648 19.416 3.90548 18.957 2.59148 18.234C2.59148 18.264 2.59148 18.303 2.59148 18.342C2.59148 23.124 6.00248 27.096 10.4755 28.011C9.67448 28.23 8.80148 28.335 7.89548 28.335C7.26548 28.335 6.62948 28.299 6.03248 28.167C7.30748 32.064 10.9255 34.929 15.2275 35.022C11.8795 37.641 7.62848 39.219 3.02648 39.219C2.21948 39.219 1.44548 39.183 0.671478 39.084C5.03048 41.895 10.1965 43.5 15.7675 43.5C33.8755 43.5 43.7755 28.5 43.7755 15.498C43.7755 15.063 43.7605 14.643 43.7395 14.226C45.6925 12.84 47.3335 11.109 48.6715 9.117Z" fill="white"/>
</g>
<defs>
<clipPath id="clip0">
<rect width="48" height="48" fill="white" transform="translate(0.671478)"/>
</clipPath>
</defs>
</svg>
