<svg width="128" height="128" viewBox="0 0 128 128" fill="none" xmlns="http://www.w3.org/2000/svg">
<rect width="128" height="128" fill="white"/>
<rect width="128" height="128" fill="black"/>
<path d="M35.1094 73.6846L47.502 71.7949C48.0293 74.1973 49.0986 76.0283 50.71 77.2881C52.3213 78.5186 54.5771 79.1338 57.4775 79.1338C60.6709 79.1338 63.0732 78.5479 64.6846 77.376C65.7686 76.5557 66.3105 75.457 66.3105 74.0801C66.3105 73.1426 66.0176 72.3662 65.4316 71.751C64.8164 71.165 63.4395 70.623 61.3008 70.125C51.3398 67.9277 45.0264 65.9209 42.3604 64.1045C38.6689 61.585 36.8232 58.084 36.8232 53.6016C36.8232 49.5586 38.4199 46.1602 41.6133 43.4062C44.8066 40.6523 49.7578 39.2754 56.4668 39.2754C62.8535 39.2754 67.5996 40.3154 70.7051 42.3955C73.8105 44.4756 75.9492 47.5518 77.1211 51.624L65.4756 53.7773C64.9775 51.9609 64.0254 50.5693 62.6191 49.6025C61.2422 48.6357 59.2646 48.1523 56.6865 48.1523C53.4346 48.1523 51.1055 48.6064 49.6992 49.5146C48.7617 50.1592 48.293 50.9941 48.293 52.0195C48.293 52.8984 48.7031 53.6455 49.5234 54.2607C50.6367 55.0811 54.4746 56.2383 61.0371 57.7324C67.6289 59.2266 72.2285 61.0576 74.8359 63.2256C77.4141 65.4229 78.7031 68.4844 78.7031 72.4102C78.7031 76.6875 76.916 80.3643 73.3418 83.4404C69.7676 86.5166 64.4795 88.0547 57.4775 88.0547C51.1201 88.0547 46.0811 86.7656 42.3604 84.1875C38.6689 81.6094 36.252 78.1084 35.1094 73.6846ZM83.7076 87V74.6514H96.0563V87H83.7076Z" fill="white"/>
</svg>
